<?xml version="1.0" encoding="UTF-8" standalone="no"?>
<!-- Created with Inkscape (http://www.inkscape.org/) -->

<svg
   xmlns:dc="http://purl.org/dc/elements/1.1/"
   xmlns:cc="http://creativecommons.org/ns#"
   xmlns:rdf="http://www.w3.org/1999/02/22-rdf-syntax-ns#"
   xmlns:svg="http://www.w3.org/2000/svg"
   xmlns="http://www.w3.org/2000/svg"
   xmlns:sodipodi="http://sodipodi.sourceforge.net/DTD/sodipodi-0.dtd"
   xmlns:inkscape="http://www.inkscape.org/namespaces/inkscape"
   width="500"
   height="204.31812"
   viewBox="0 0 132.29166 54.059171"
   version="1.1"
   id="svg8"
   inkscape:version="0.92.4 (5da689c313, 2019-01-14)"
   sodipodi:docname="JavaFx Logo.svg">
  <defs
     id="defs2" />
  <sodipodi:namedview
     id="base"
     pagecolor="#ffffff"
     bordercolor="#666666"
     borderopacity="1.0"
     inkscape:pageopacity="0.0"
     inkscape:pageshadow="2"
     inkscape:zoom="1.996"
     inkscape:cx="250"
     inkscape:cy="102.15906"
     inkscape:document-units="px"
     inkscape:current-layer="layer1"
     showgrid="false"
     units="px"
     inkscape:window-width="1600"
     inkscape:window-height="837"
     inkscape:window-x="-8"
     inkscape:window-y="-8"
     inkscape:window-maximized="1"
     showguides="true"
     inkscape:guide-bbox="true"
     inkscape:snap-page="true"
     inkscape:snap-grids="false"
     inkscape:snap-to-guides="true" />
  <metadata
     id="metadata5">
    <rdf:RDF>
      <cc:Work
         rdf:about="">
        <dc:format>image/svg+xml</dc:format>
        <dc:type
           rdf:resource="http://purl.org/dc/dcmitype/StillImage" />
        <dc:title></dc:title>
      </cc:Work>
    </rdf:RDF>
  </metadata>
  <g
     inkscape:label="Layer 1"
     inkscape:groupmode="layer"
     id="layer1"
     transform="translate(-24.081062,-242.4978)">
    <g
       id="g5036"
       transform="matrix(0.69608136,0,0,0.69608136,7.3186836,90.129189)">
      <g
         id="g5012">
        <g
           id="g4276"
           style="fill:#e76f00;fill-opacity:1"
           transform="translate(-49.445361,209.71158)">
          <path
             inkscape:connector-curvature="0"
             id="path4115"
             d="m 142.92616,47.933243 c -0.92465,0.232553 -0.84942,-0.996789 -0.90598,14.837427 -0.0571,16.096627 -0.0442,15.844778 -0.95327,17.688497 -0.52048,1.055881 -1.48244,2.14718 -2.71614,3.081155 -1.03845,0.786617 -1.03225,1.243663 0.0355,2.423282 1.05524,1.165918 1.40594,1.170266 3.33112,0.04489 2.43135,-1.422138 4.12896,-3.584218 4.75637,-6.058477 0.51549,-2.032747 0.5696,-3.886431 0.52918,-18.111971 l -0.0379,-13.272908 -0.33765,-0.337652 c -0.36812,-0.368123 -2.67883,-0.552183 -3.70112,-0.294125"
             style="fill:#e76f00;fill-opacity:1;fill-rule:evenodd;stroke:none;stroke-width:0.6218276" />
          <path
             id="path4113"
             d="m 160.04544,55.568543 c -0.54269,0.004 -1.10814,0.03417 -1.69491,0.09068 -2.45187,0.236293 -5.63828,1.124978 -6.2601,1.746806 -0.34263,0.342626 -0.36506,0.420818 -0.30226,1.033938 0.16921,1.638516 0.56214,1.843244 2.55263,1.333345 5.91669,-1.515392 8.92305,-0.492055 9.28493,3.160562 0.19389,1.955032 -0.16489,2.29019 -2.44826,2.291434 -7.6006,0.0048 -11.90663,3.943059 -10.59832,9.694974 1.04158,4.58099 7.17194,5.883965 12.32003,2.619353 0.91845,-0.582639 1.28557,-0.478008 1.6624,0.472772 0.36503,0.921543 2.68678,1.247748 3.44913,0.48475 l 0.34503,-0.344457 v -8.361058 c 0,-9.115999 -0.002,-9.148145 -0.71743,-10.661049 -1.10833,-2.345066 -3.79405,-3.590213 -7.59287,-3.562047 z m 1.34646,12.659923 c 0.61559,-0.0023 1.31526,0.06159 1.55405,0.143142 0.64856,0.221393 0.77403,0.732378 0.72427,2.946703 -0.0479,2.162716 -0.13368,2.362731 -1.363,3.181663 -3.43621,2.288943 -6.84968,1.406939 -7.15375,-1.848318 -0.26428,-2.829329 1.95464,-4.402648 6.23843,-4.42319 z"
             style="fill:#e76f00;fill-opacity:1;fill-rule:evenodd;stroke:none;stroke-width:0.6218276"
             inkscape:connector-curvature="0" />
          <path
             id="path4111"
             d="m 202.77917,55.556565 c -0.56758,8.76e-4 -1.15841,0.0322 -1.77076,0.09524 v 5.84e-4 c -4.25455,0.437765 -6.69787,1.475532 -6.56293,2.787588 0.16922,1.638515 0.56216,1.843247 2.55263,1.333345 5.05859,-1.295267 8.29369,-0.631889 9.03116,1.85231 0.32148,1.08198 0.26771,2.755925 -0.10209,3.186225 l -0.29883,0.346738 -2.09525,0.08212 c -5.90737,0.232669 -9.45075,2.241795 -10.29892,5.840937 -1.65904,7.038466 5.33264,10.739916 12.26414,6.492209 0.92279,-0.565862 1.19368,-0.521047 1.61963,0.268038 0.41353,0.767343 0.58827,0.896289 1.35559,1.002004 0.91473,0.1255 1.84158,-0.03823 2.19106,-0.387801 l 0.29484,-0.29427 -0.0365,-8.800184 -0.0365,-8.800756 -0.29484,-0.791563 c -1.01093,-2.717231 -3.83941,-4.217965 -7.81244,-4.212753 z m 1.37668,12.657074 c 0.86024,0.01664 1.5487,0.1501 1.77932,0.418024 0.30409,0.353214 0.30546,0.369572 0.26689,2.591979 l -0.0388,2.236119 -0.63188,0.581127 c -1.65344,1.519766 -4.46396,2.176214 -5.98807,1.398929 -2.45,-1.249892 -2.3288,-5.146274 0.20017,-6.419784 1.0672,-0.537877 2.97863,-0.834136 4.41235,-0.806394 z"
             style="fill:#e76f00;fill-opacity:1;fill-rule:evenodd;stroke:none;stroke-width:0.6218276"
             inkscape:connector-curvature="0" />
          <path
             inkscape:connector-curvature="0"
             id="path4109"
             d="m 171.65194,56.270153 c -0.40046,0.400455 -0.38987,0.440254 2.87286,11.048635 3.49465,11.364507 3.36841,10.990165 3.82236,11.298608 0.53665,0.364377 4.94913,0.33702 5.45219,-0.0336 1.32386,-0.976279 4.86828,-11.233319 6.49249,-18.790384 0.81833,-3.809317 0.83637,-3.772007 -1.83624,-3.772007 -2.45748,0 -2.35548,-0.109453 -2.93441,3.144583 -0.70205,3.946117 -1.6298,7.713154 -2.81377,11.422966 -0.87616,2.745991 -1.28469,2.766508 -1.98427,0.09941 -0.46947,-1.78964 -4.0574,-13.352512 -4.31111,-13.895369 -0.31528,-0.672195 -0.66349,-0.771688 -2.70185,-0.771688 -1.64348,0 -1.83251,0.02303 -2.05825,0.248732"
             style="fill:#e76f00;fill-opacity:1;fill-rule:evenodd;stroke:none;stroke-width:0.6218276" />
        </g>
        <g
           id="g4296"
           style="fill:#e76f00;fill-opacity:1"
           transform="translate(-49.445361,209.71158)">
          <path
             inkscape:connector-curvature="0"
             id="path4119"
             d="m 109.5229,9.3973464 c -0.0468,0.075231 -0.13068,0.9290106 -0.18661,1.8965736 -0.28604,4.92301 -2.10861,7.542148 -9.17879,13.192692 -4.90933,3.922489 -6.326466,5.26999 -7.576357,7.201386 -2.442531,3.775116 -1.018537,7.950065 4.634484,13.588176 3.671893,3.663187 4.059293,3.313718 1.159712,-1.045291 -4.691076,-7.051524 -3.971605,-10.661235 3.320571,-16.659384 6.29413,-5.176713 9.17693,-9.630863 9.19557,-14.207515 0.01,-2.595509 -0.78723,-4.9074634 -1.36862,-3.9666376"
             style="fill:#e76f00;fill-opacity:1;fill-rule:evenodd;stroke:none;stroke-width:0.6218276" />
          <path
             inkscape:connector-curvature="0"
             id="path4117"
             d="m 113.99317,24.616575 c -4.71843,1.607424 -9.40392,4.823516 -11.14627,7.650967 -2.12913,3.454251 -1.66712,6.890471 1.48181,11.0306 1.96062,2.578095 2.24791,3.610951 1.595,5.739467 -0.4241,1.3817 -0.38118,1.59623 0.26674,1.325736 1.44452,-0.603795 3.34296,-3.067476 3.77513,-4.89938 0.40109,-1.700697 0.066,-2.721739 -1.82694,-5.565977 -0.78039,-1.172767 -1.5956,-2.543899 -1.81075,-3.046954 -1.36055,-3.178783 0.5528,-6.049139 6.95514,-10.435511 3.05131,-2.091207 3.282,-2.675724 0.71014,-1.798948"
             style="fill:#e76f00;fill-opacity:1;fill-rule:evenodd;stroke:none;stroke-width:0.6218276" />
        </g>
      </g>
      <g
         id="g5002">
        <g
           id="g4292"
           style="fill:#53829e;fill-opacity:1"
           transform="translate(-49.445361,209.71158)">
          <path
             inkscape:connector-curvature="0"
             id="path4101"
             d="m 122.23989,48.81997 c -1.24428,0.292879 -1.22626,0.513007 0.0759,0.909732 5.57159,1.699455 5.05857,6.598835 -1.18769,11.346487 -2.11919,1.610534 -2.21184,2.016587 -0.33329,1.461295 3.63893,-1.075139 7.38233,-4.087271 8.27964,-6.662881 1.36926,-3.930573 -2.6179,-8.04645 -6.83452,-7.054633"
             style="fill:#53829e;fill-opacity:1;fill-rule:evenodd;stroke:none;stroke-width:0.6218276" />
          <path
             inkscape:connector-curvature="0"
             id="path4099"
             d="m 87.769549,49.941746 c -3.830474,0.557778 -8.343073,2.624733 -8.089978,3.70547 0.77416,3.309367 30.140599,3.270191 35.153139,-0.04727 0.81896,-0.541611 0.51179,-1.005494 -0.57145,-0.862474 -13.16905,1.73863 -26.997877,1.93637 -28.622722,0.409783 -0.682149,-0.641103 -0.190837,-1.162818 2.030892,-2.158984 2.377875,-1.065812 2.408334,-1.382946 0.100117,-1.046536"
             style="fill:#53829e;fill-opacity:1;fill-rule:evenodd;stroke:none;stroke-width:0.6218276" />
          <path
             inkscape:connector-curvature="0"
             id="path4093"
             d="m 87.750275,58.778538 c -0.923423,0.243757 -2.159612,1.387919 -2.159612,1.999174 0,3.522649 14.927577,4.634489 26.136027,1.946943 2.31879,-0.555915 2.49603,-0.92155 0.9458,-1.951916 -1.07762,-0.716968 -1.39661,-0.734378 -4.44732,-0.240028 -4.79305,0.776041 -10.464715,1.006118 -14.923854,0.60504 -3.476014,-0.312158 -4.223452,-0.590737 -4.543692,-1.692615 -0.209639,-0.720698 -0.378079,-0.832005 -1.007349,-0.666598"
             style="fill:#53829e;fill-opacity:1;fill-rule:evenodd;stroke:none;stroke-width:0.6218276" />
          <path
             inkscape:connector-curvature="0"
             id="path4091"
             d="m 88.910599,67.336133 c -3.924975,2.489158 3.15514,5.613229 12.039211,5.312259 4.82162,-0.162869 10.82351,-1.465029 11.43414,-2.480462 0.22068,-0.367503 -0.0547,-0.611879 -1.55393,-1.380469 -1.66838,-0.855008 -1.55582,-0.850026 -5.27871,-0.256174 -2.11545,0.337021 -2.4475,0.356293 -6.031721,0.352556 -5.715843,-0.0071 -7.796465,-0.333284 -8.637183,-1.359293 -0.577683,-0.705158 -1.081357,-0.753033 -1.971807,-0.188488"
             style="fill:#53829e;fill-opacity:1;fill-rule:evenodd;stroke:none;stroke-width:0.6218276" />
          <path
             inkscape:connector-curvature="0"
             id="path4089"
             d="m 81.175691,72.192522 c -4.730863,0.627437 -8.79577,3.323673 -7.354361,4.878246 1.597464,1.724328 16.681774,3.257138 27.99157,2.844863 13.92955,-0.508657 25.62801,-3.530116 23.8962,-6.172884 -0.28231,-0.432181 -0.38428,-0.39674 -0.89169,0.309664 -2.57188,3.58048 -30.754342,5.240766 -42.956466,2.532074 -4.347215,-0.96568 -4.43737,-2.01968 -0.312157,-3.648261 0.961968,-0.379937 1.28592,-0.564616 1.173369,-0.668449 -0.139838,-0.129261 -0.871178,-0.164749 -1.546465,-0.07521"
             style="fill:#53829e;fill-opacity:1;fill-rule:evenodd;stroke:none;stroke-width:0.6218276" />
          <path
             inkscape:connector-curvature="0"
             id="path2"
             d="m 126.87316,78.185753 c -7.60743,3.328633 -19.62549,4.626398 -37.022992,3.997105 -3.933061,-0.142423 -2.195054,0.522334 2.642769,1.010474 15.282673,1.541506 33.923813,-1.007984 35.944743,-4.916789 0.42409,-0.820202 0.13937,-0.836372 -1.56452,-0.09071"
             style="fill:#53829e;fill-opacity:1;fill-rule:evenodd;stroke:none;stroke-width:0.6218276" />
        </g>
        <g
           id="g4988">
          <path
             inkscape:connector-curvature="0"
             id="path4103"
             d="m 176.25046,257.65726 c -3.43559,0.39859 -5.66672,2.58556 -6.58951,6.45892 -0.62743,2.63593 -4.92177,23.11332 -4.92177,23.47027 0,0.72815 0.30036,0.83821 2.40647,0.88422 3.22231,0.0703 2.88093,0.55094 4.25517,-5.98757 0.57768,-2.74848 1.13858,-5.23641 1.2474,-5.52866 0.3482,-0.93772 -6.4e-4,-0.89917 8.18447,-0.89917 9.27456,0 8.81131,0.19718 6.66414,-2.83803 -1.72308,-2.43444 -0.91906,-2.18758 -7.34876,-2.26095 -6.91347,-0.079 -6.393,0.31588 -5.40119,-4.09909 0.94021,-4.18428 0.24189,-3.90508 9.96541,-3.98467 8.21123,-0.0672 7.82819,-0.033 8.1901,-0.73687 0.0903,-0.17598 0.32209,-1.08384 0.51486,-2.01721 0.40978,-1.98176 0.36626,-2.24542 -0.40978,-2.46119 -0.56089,-0.15547 -15.41386,-0.15547 -16.75701,0"
             style="fill:#53829e;fill-opacity:1;fill-rule:evenodd;stroke:none;stroke-width:0.6218276" />
          <path
             inkscape:connector-curvature="0"
             id="path4097"
             d="m 186.59648,265.86724 c -0.58887,0.34263 -0.54288,0.42471 3.67872,6.51924 2.37477,3.42815 2.55757,3.78009 2.27466,4.37394 -0.10948,0.23009 -1.33695,1.6068 -2.72672,3.05939 -9.1303,9.54009 -8.65523,8.58745 -4.313,8.64776 3.60723,0.0498 3.06559,0.33641 6.84446,-3.62401 1.67271,-1.75232 3.19805,-3.25215 3.39082,-3.33176 0.54659,-0.2275 0.8258,0.0672 2.91015,3.07122 2.95243,4.25515 2.46554,3.9088 5.49757,3.9088 3.57677,0 3.56868,0.12433 0.30596,-4.60712 -4.45105,-6.45705 -4.2757,-6.18097 -4.2757,-6.71449 0,-0.55842 -0.1939,-0.33517 5.37571,-6.16916 5.38689,-5.64246 5.32408,-5.26812 0.88237,-5.26812 h -2.8629 l -0.49373,0.342 c -0.27172,0.18842 -1.68515,1.58753 -3.14209,3.11038 -2.72173,2.84611 -3.01277,3.06872 -3.54568,2.71988 -0.31027,-0.20334 -0.42097,-0.3532 -2.77893,-3.74776 -0.79033,-1.13856 -1.53965,-2.08374 -1.7492,-2.20749 -0.42595,-0.25183 -4.86332,-0.32086 -5.27247,-0.0827"
             style="fill:#53829e;fill-opacity:1;fill-rule:evenodd;stroke:none;stroke-width:0.6218276" />
          <path
             d="m 212.57787,265.99916 h -0.29141 v 0.95788 q 0,0.0827 -0.0369,0.12322 -0.0369,0.0396 -0.0953,0.0396 -0.0594,0 -0.0971,-0.0405 -0.0369,-0.0405 -0.0369,-0.12232 v -0.95788 h -0.29141 q -0.0684,0 -0.10164,-0.0297 -0.0333,-0.0306 -0.0333,-0.08 0,-0.0513 0.0342,-0.081 0.0351,-0.0297 0.10074,-0.0297 h 0.84905 q 0.0693,0 0.10253,0.0306 0.0342,0.0306 0.0342,0.0801 0,0.0495 -0.0342,0.08 -0.0342,0.0297 -0.10253,0.0297 z"
             style="font-style:normal;font-variant:normal;font-weight:normal;font-stretch:normal;font-size:1.84201121px;line-height:1.25;font-family:'Arial Rounded MT Bold';-inkscape-font-specification:'Arial Rounded MT Bold, Normal';font-variant-ligatures:normal;font-variant-caps:normal;font-variant-numeric:normal;font-feature-settings:normal;text-align:center;letter-spacing:0px;word-spacing:0px;writing-mode:lr-tb;text-anchor:middle;fill:#53829e;fill-opacity:1;stroke:none;stroke-width:0.02427868"
             id="path4967"
             inkscape:connector-curvature="0" />
          <path
             d="m 213.31809,266.89858 -0.21136,-0.84006 v 0.91021 q 0,0.0756 -0.0342,0.11333 -0.0333,0.0378 -0.089,0.0378 -0.054,0 -0.0882,-0.0369 -0.0342,-0.0378 -0.0342,-0.11423 v -1.04332 q 0,-0.0863 0.045,-0.11603 0.045,-0.0306 0.12142,-0.0306 h 0.0828 q 0.0746,0 0.10793,0.0135 0.0342,0.0135 0.0504,0.0486 0.0162,0.0351 0.0369,0.11423 l 0.19158,0.72223 0.19157,-0.72223 q 0.0207,-0.0791 0.0369,-0.11423 0.0162,-0.0351 0.0495,-0.0486 0.0342,-0.0135 0.10883,-0.0135 h 0.0827 q 0.0764,0 0.12142,0.0306 0.045,0.0297 0.045,0.11603 v 1.04332 q 0,0.0756 -0.0342,0.11333 -0.0333,0.0378 -0.0899,0.0378 -0.0531,0 -0.0873,-0.0378 -0.0342,-0.0378 -0.0342,-0.11333 v -0.91021 l -0.21136,0.84006 q -0.0207,0.0819 -0.0342,0.12052 -0.0126,0.0378 -0.0477,0.0693 -0.0351,0.0315 -0.0971,0.0315 -0.0468,0 -0.0791,-0.0207 -0.0324,-0.0198 -0.0504,-0.0513 -0.018,-0.0315 -0.0288,-0.0693 -0.01,-0.0387 -0.0207,-0.0801 z"
             style="font-style:normal;font-variant:normal;font-weight:normal;font-stretch:normal;font-size:1.84201121px;line-height:1.25;font-family:'Arial Rounded MT Bold';-inkscape-font-specification:'Arial Rounded MT Bold, Normal';font-variant-ligatures:normal;font-variant-caps:normal;font-variant-numeric:normal;font-feature-settings:normal;text-align:center;letter-spacing:0px;word-spacing:0px;writing-mode:lr-tb;text-anchor:middle;fill:#53829e;fill-opacity:1;stroke:none;stroke-width:0.02427868"
             id="path4969"
             inkscape:connector-curvature="0" />
        </g>
      </g>
    </g>
  </g>
</svg>
