<?xml version="1.0" ?><!DOCTYPE svg  PUBLIC '-//W3C//DTD SVG 1.1//EN'  'http://www.w3.org/Graphics/SVG/1.1/DTD/svg11.dtd'><svg enable-background="new 0 0 512 512" id="Layer_1" version="1.1" viewBox="0 0 512 512" xml:space="preserve" xmlns="http://www.w3.org/2000/svg" xmlns:xlink="http://www.w3.org/1999/xlink"><g><path d="M2.6,446.3c56.8,5.4,107.1-8.8,153-43.2c-11.9-0.9-22.3-2.5-32.3-6.1c-26.2-9.5-45.8-26.4-58.5-51.2   c-1.8-3.5-3.3-7.3-5-10.9c-1.8-3.8,0-4.3,3.3-3.8c13,2.1,25.9,1.2,38.7-1.4c0.3-0.1,0.5-0.4,0.8-0.6c0.2-1.4-0.9-1.6-1.8-1.8   c-29-7.2-50.7-24.2-65.6-49.8c-8.4-14.5-12.8-30.2-13.3-47c-0.1-4.3,1.1-4.8,4.7-3.1c12.8,6.2,26.3,10,41.7,10.5   c-7.5-5.9-14.2-11.3-19.8-17.9c-20.5-24.1-29-51.8-24.9-83.3c1.5-11.7,5.2-22.6,10.3-33.2c1.9-3.9,3.3-4.4,6.2-0.9   c16.7,20.3,36.2,37.6,57.7,52.6c16.1,11.3,33.3,20.7,51.3,28.6c23.3,10.1,47.6,17,72.6,21c8.4,1.3,16.9,1.6,25.3,2.6   c3.9,0.4,4.5-1.1,3.8-4.6c-4.2-21.8-1.4-42.9,8.1-62.8c14.9-31,39.2-50.8,73.1-58c33.5-7.1,63.2,1.3,89.6,22.6   c8.5,12.8,19.2,5.3,28.9,2.6c15.4-4.3,29.9-11,44.3-18.5c-7.3,23.3-21.7,41.2-41.8,55.1c19.4-1.3,37.5-7.3,56.7-14.9   c-5.1,8.1-10.4,14.4-15.6,20.7c-9.7,11.6-20.9,21.4-32.8,30.5c-2.5,1.9-3.2,3.8-3.1,6.7c0.6,21-1.1,41.9-4.9,62.6   c-4,21.7-10.4,42.6-18.9,62.9c-9.5,22.6-21.5,44-36.1,63.7c-18.2,24.6-39.7,46.1-64.7,63.9c-33.7,24-71,39.6-111.6,47.4   c-25.4,4.9-51.1,6.4-77,5.1c-20.1-1-39.7-4.1-59-9.1c-24.2-6.3-47.4-15.5-69.1-27.9C12.3,452.7,7.2,450.9,2.6,446.3z" fill="#58AEE7"/></g></svg>